<svg xmlns="http://www.w3.org/2000/svg" width="439.34" height="112.566" viewBox="0 0 116.242 29.783" xmlns:v="https://vecta.io/nano"><style><![CDATA[.B{overflow:visible}.C{fill:context-stroke}.D{fill-rule:evenodd}.E{stroke:context-stroke}.F{stroke-width:1pt}.G{font-family:sans-serif}]]></style><defs><marker  refX="0" refY="0" orient="auto" class="B"><path transform="matrix(-.4 0 0 -.4 -4 0)" d="M0 0l5-5-17.5 5L5 5z" class="C D E F"/></marker><marker  refX="0" refY="0" orient="auto" class="B"><path transform="matrix(-.4 0 0 -.4 -4 0)" d="M0 0l5-5-17.5 5L5 5z" class="C D E F"/></marker><marker  refX="0" refY="0" orient="auto" class="B"><path transform="matrix(-.4 0 0 -.4 -4 0)" d="M0 0l5-5-17.5 5L5 5z" class="C D E F"/></marker><marker  refX="0" refY="0" orient="auto" class="B"><path transform="matrix(-.4 0 0 -.4 -4 0)" d="M0 0l5-5-17.5 5L5 5z" class="C D E F"/></marker><marker  refX="0" refY="0" orient="auto" class="B"><path transform="matrix(-.4 0 0 -.4 -4 0)" d="M0 0l5-5-17.5 5L5 5z" class="C D E F"/></marker><marker  refX="0" refY="0" orient="auto" class="B"><path transform="matrix(-.4 0 0 -.4 -4 0)" d="M0 0l5-5-17.5 5L5 5z" class="C D E F"/></marker><marker  refX="0" refY="0" orient="auto" class="B"><path transform="matrix(-.4 0 0 -.4 -4 0)" d="M0 0l5-5-17.5 5L5 5z" class="C D E F"/></marker></defs><text xml:space="preserve" x="17.296" y="4.171" transform="matrix(.969925 0 0 1.031008 -.336 -.593)" font-size="4.966" class="G"><tspan x="17.296" y="4.171" font-weight="normal" font-family="Liberation Mono">0  0  8,20  *  *  *  *</tspan></text><text xml:space="preserve" x="0.059" y="10.128" transform="matrix(1.023967 0 0 .976594 -.336 -.593)" font-size="4.962" class="G"><tspan x="0.059" y="10.128">sec</tspan><tspan x="0.059" y="16.331">min</tspan><tspan x="0.059" y="22.534">hour</tspan></text><text xml:space="preserve" x="87.855" y="9.717" transform="matrix(.966576 0 0 1.03458 -.336 -.593)" font-size="4.963" class="G"><tspan x="87.855" y="9.717">year</tspan><tspan x="87.855" y="15.921">day of week</tspan><tspan x="87.855" y="22.124">month</tspan><tspan x="87.855" y="28.328">day of month</tspan></text></svg>